<?xml version="1.0" standalone="no"?>
<!DOCTYPE svg PUBLIC "-//W3C//DTD SVG 20010904//EN"
 "http://www.w3.org/TR/2001/REC-SVG-20010904/DTD/svg10.dtd">
<svg version="1.0" xmlns="http://www.w3.org/2000/svg"
 width="4762.000000pt" height="4762.000000pt" viewBox="0 0 4762.000000 4762.000000"
 preserveAspectRatio="xMidYMid meet">
<metadata>
Created by potrace 1.14, written by Peter Selinger 2001-2017
</metadata>
<g transform="translate(0.000000,4762.000000) scale(0.100000,-0.100000)"
fill="#000000" stroke="none">
<path d="M29277 47614 c-1 -1 -74 -5 -162 -8 -88 -4 -180 -9 -205 -11 -25 -2
-90 -6 -145 -10 -55 -3 -125 -7 -155 -10 -30 -2 -89 -7 -130 -10 -74 -6 -130
-11 -220 -20 -25 -2 -74 -7 -110 -10 -109 -10 -163 -15 -200 -20 -19 -2 -60
-7 -90 -10 -30 -4 -68 -8 -85 -10 -16 -2 -59 -6 -95 -10 -36 -4 -72 -8 -80
-10 -8 -2 -44 -6 -80 -10 -36 -3 -72 -8 -80 -10 -8 -2 -40 -7 -70 -10 -30 -3
-66 -8 -80 -10 -14 -2 -45 -7 -70 -10 -25 -3 -56 -8 -70 -10 -33 -6 -75 -13
-130 -20 -42 -6 -204 -30 -260 -40 -14 -2 -41 -7 -60 -10 -19 -3 -60 -10 -90
-15 -30 -5 -72 -12 -94 -16 -21 -3 -48 -8 -60 -10 -11 -2 -37 -7 -56 -10 -19
-3 -42 -7 -50 -9 -8 -2 -31 -7 -50 -10 -19 -3 -93 -18 -165 -32 -71 -14 -141
-27 -155 -29 -14 -2 -45 -9 -70 -14 -25 -6 -146 -33 -270 -60 -322 -70 -730
-171 -915 -225 -27 -9 -59 -17 -70 -19 -41 -9 -470 -138 -487 -147 -10 -5 -18
-8 -18 -5 0 12 -793 -266 -965 -339 -16 -7 -88 -36 -160 -65 -71 -29 -148 -61
-170 -73 -22 -11 -40 -19 -40 -17 0 14 -543 -244 -835 -398 -172 -90 -581
-326 -615 -354 -5 -5 -64 -43 -130 -85 -66 -42 -121 -80 -123 -85 -2 -4 -8 -8
-12 -8 -11 0 -178 -118 -325 -229 -639 -480 -1164 -1028 -1558 -1623 -53 -80
-102 -158 -108 -172 -7 -14 -16 -26 -21 -26 -4 0 -8 -4 -8 -8 0 -5 -31 -63
-70 -130 -163 -284 -327 -652 -435 -977 -51 -151 -111 -358 -122 -414 -2 -13
-6 -28 -8 -31 -6 -9 -64 -272 -71 -320 -3 -19 -11 -66 -19 -105 -7 -38 -17
-95 -21 -125 -3 -30 -8 -66 -11 -80 -4 -26 -7 -52 -17 -135 -11 -96 -16 -143
-22 -226 -3 -46 -8 -102 -11 -124 -9 -80 -11 -3930 -13 -22060 0 -10164 -1
-18492 0 -18507 l0 -27 153 4 c137 4 191 7 402 20 33 2 107 7 165 10 58 3 121
8 140 10 19 2 71 6 115 10 160 12 303 25 350 30 44 6 111 12 195 20 30 3 71 7
90 10 42 6 95 12 170 20 30 4 66 8 80 10 14 2 50 7 80 10 30 3 66 8 80 10 14
2 48 7 75 10 28 3 61 7 75 10 14 2 45 7 70 10 25 3 56 8 70 10 14 2 45 7 70
10 25 3 70 10 100 15 83 14 131 21 175 26 22 3 47 7 55 9 8 3 33 7 55 10 22 3
54 9 70 12 17 4 37 7 45 9 13 2 37 6 120 20 23 4 37 6 100 19 14 2 37 7 53 9
24 4 60 11 174 32 15 3 59 12 98 20 38 9 81 18 95 20 33 6 170 34 195 40 11 3
31 7 45 10 14 2 66 14 115 25 50 12 97 22 105 24 8 2 101 24 205 50 105 25
199 48 211 50 36 8 525 143 614 170 47 14 93 27 102 30 35 8 409 127 478 153
8 3 20 6 25 8 104 26 808 296 983 375 34 16 64 29 67 29 22 0 643 299 830 400
167 90 285 156 333 187 29 18 54 33 57 33 8 0 110 65 113 73 2 4 8 7 13 7 26
0 686 448 719 489 3 3 23 20 45 36 46 34 40 30 165 131 289 236 605 544 840
819 450 527 761 1044 1012 1679 21 56 41 108 43 116 2 8 20 62 40 120 33 96
98 311 110 363 3 12 16 69 30 127 26 110 70 320 79 380 3 19 8 46 10 60 6 34
14 84 21 145 4 28 8 60 10 73 2 13 7 53 10 90 4 37 8 78 11 92 2 14 6 70 10
125 3 55 8 123 11 150 3 28 7 9161 9 20296 l4 20245 -86 0 c-47 -1 -86 -2 -87
-2z"/>
<path d="M43 21718 c2 -8081 6 -14715 10 -14742 9 -77 18 -167 21 -211 11
-151 84 -591 120 -730 2 -5 6 -28 10 -50 5 -22 15 -64 23 -94 8 -29 16 -59 17
-65 5 -23 29 -105 58 -201 18 -55 33 -104 34 -110 1 -5 18 -55 37 -110 43
-125 84 -231 132 -339 8 -19 15 -37 15 -41 0 -13 206 -427 256 -515 114 -199
156 -264 354 -554 59 -86 213 -277 348 -434 311 -359 708 -722 1122 -1025 80
-59 150 -111 156 -116 43 -35 377 -251 559 -362 72 -43 80 -48 95 -55 8 -4 26
-15 40 -24 24 -16 61 -37 245 -137 260 -142 689 -347 984 -469 86 -36 165 -69
176 -74 44 -21 321 -126 490 -187 325 -117 654 -223 985 -318 186 -54 863
-228 929 -240 17 -3 61 -12 98 -21 38 -9 79 -18 93 -20 14 -3 41 -9 60 -14 19
-5 53 -12 75 -16 22 -3 42 -7 45 -9 5 -3 455 -91 519 -101 18 -3 43 -8 55 -10
27 -5 191 -34 231 -40 17 -2 41 -6 55 -9 36 -7 91 -16 120 -20 14 -2 57 -9 95
-15 39 -6 85 -13 104 -16 19 -2 46 -6 60 -9 14 -2 44 -6 66 -9 22 -3 87 -12
145 -20 58 -8 129 -18 159 -21 30 -4 61 -8 70 -10 9 -1 45 -6 81 -10 36 -3 76
-8 90 -10 14 -2 50 -7 80 -10 80 -8 134 -14 188 -21 26 -3 70 -7 97 -9 28 -2
68 -6 90 -9 22 -3 76 -8 120 -11 44 -3 94 -8 110 -10 17 -2 75 -6 130 -10 55
-4 111 -8 124 -10 13 -2 76 -7 140 -10 64 -4 141 -8 171 -10 30 -2 134 -6 230
-10 96 -3 191 -7 211 -9 20 -2 41 -1 46 3 7 4 10 5902 10 18204 l1 18197
-5594 0 -5594 0 3 -14692z"/>
<path d="M36398 36398 c-6 -22 -2 -25178 5 -25184 10 -10 373 2 647 21 36 3
101 7 145 10 44 3 100 8 125 10 25 3 79 7 120 10 41 3 93 7 115 10 22 2 72 7
110 10 39 3 86 8 105 11 19 2 60 7 90 9 69 6 223 22 280 30 14 2 50 6 80 10
30 4 66 8 80 10 14 2 50 7 80 10 30 3 66 8 80 10 14 2 45 7 70 10 25 3 56 8
70 10 14 2 61 9 106 15 44 6 89 12 100 14 10 2 42 7 69 10 28 4 57 9 65 11 8
2 35 6 60 9 25 3 56 8 70 11 13 2 40 7 60 10 20 3 45 7 57 9 11 3 38 7 59 10
51 8 301 53 389 71 39 8 86 17 105 20 19 3 69 13 110 21 41 9 82 17 90 19 20
4 310 66 333 71 9 2 25 6 35 8 9 2 60 14 112 26 149 33 620 154 780 200 80 23
150 43 155 44 10 2 90 26 260 78 421 128 1060 360 1333 484 29 13 55 24 57 24
8 0 242 105 395 177 117 55 417 205 485 243 28 15 102 56 165 90 227 125 586
349 810 506 66 46 364 271 400 301 14 11 72 60 130 108 161 133 238 203 428
388 81 79 234 240 289 303 10 12 39 45 65 75 38 44 186 225 216 264 123 160
296 413 367 537 6 10 32 55 59 100 136 229 313 609 416 893 75 208 186 587
206 705 2 14 11 57 19 95 8 39 17 84 20 100 18 98 35 196 40 235 3 25 8 56 10
70 2 14 7 50 10 80 3 30 8 66 10 80 2 14 7 63 10 110 4 47 9 92 10 101 16 81
18 1444 19 9297 l1 8992 -5591 0 c-4465 0 -5593 -3 -5596 -12z"/>
</g>
</svg>
