<svg xmlns="http://www.w3.org/2000/svg" width="35.415" height="35.415" viewBox="0 0 35.415 35.415">
  <g id="Discord" transform="translate(-1118.085 -1024)">
    <path id="Path_33" data-name="Path 33" d="M493.96,24.179a2.024,2.024,0,1,1-2.006-2.259,2.129,2.129,0,0,1,2.006,2.259" transform="translate(640.123 1018.368)" fill="#fff"/>
    <path id="Path_34" data-name="Path 34" d="M503.96,24.179a2.024,2.024,0,1,1-2.014-2.259,2.149,2.149,0,0,1,2.014,2.259" transform="translate(637.554 1018.368)" fill="#fff"/>
    <path id="Path_35" data-name="Path 35" d="M491.527,0a17.708,17.708,0,1,0,17.708,17.708A17.708,17.708,0,0,0,491.527,0m11.087,23.37a18.467,18.467,0,0,1-5.662,2.853,13.261,13.261,0,0,1-1.211-1.962,11.545,11.545,0,0,0,1.91-.914c-.156-.119-.312-.238-.468-.364a13.235,13.235,0,0,1-11.317,0c-.149.119-.3.245-.461.364a12.133,12.133,0,0,0,1.91.907,13.378,13.378,0,0,1-1.219,1.969,18.429,18.429,0,0,1-5.655-2.853,18.844,18.844,0,0,1,3.307-12.751,18.183,18.183,0,0,1,4.615-1.434c.223.394.424.8.609,1.211a17.337,17.337,0,0,1,5.112,0,12.118,12.118,0,0,1,.587-1.211,18.565,18.565,0,0,1,4.615,1.427,18.821,18.821,0,0,1,3.329,12.759" transform="translate(644.265 1024)" fill="#fff"/>
  </g>
</svg>
