<?xml version="1.0" encoding="UTF-8"?>
<svg id="Layer_1" data-name="Layer 1"
  xmlns="http://www.w3.org/2000/svg" viewBox="0 0 35.67 35.67">
  <defs>
    <style>
      .cls-1 {
        fill: #fff;
      }
    </style>
  </defs>
  <path class="cls-1" d="M18.17,18.1c-1.76.1-2.34.95-2.3,1.71.05,1.03,1.16,1.51,2.23,1.45,1.05-.06,2.23-.47,2.43-2.99-.54-.12-1.14-.18-1.78-.18-.19,0-.39,0-.59.02Z"/>
  <path class="cls-1" d="M17.81,1.06C8.55,1.06,1.04,8.57,1.04,17.83s7.51,16.77,16.77,16.77,16.77-7.51,16.77-16.77S27.07,1.06,17.81,1.06ZM12.71,23.69c1.15,1.46,2.91,2.21,5.24,2.22,2.1-.02,3.49-.52,4.65-1.67,1.32-1.32,1.3-2.94.87-3.92-.25-.58-.7-1.06-1.31-1.43-.15,1.1-.48,1.98-1.01,2.65-.7.89-1.7,1.37-2.97,1.44-.96.05-1.89-.18-2.61-.66-.85-.56-1.35-1.42-1.4-2.43-.11-1.97,1.46-3.39,3.9-3.53.87-.05,1.67-.01,2.42.12-.1-.61-.3-1.09-.6-1.44-.41-.48-1.05-.72-1.89-.73h-.02c-.68,0-1.6.19-2.18,1.08l-1.41-.97c.82-1.25,2.15-1.85,3.63-1.84,2.56.02,4.09,1.62,4.24,4.41.09.04.17.08.26.12,1.2.57,2.07,1.44,2.53,2.51.64,1.49.7,3.92-1.24,5.86-1.48,1.48-3.28,2.15-5.83,2.17h-.01c-2.87-.02-5.08-.99-6.56-2.87-1.32-1.68-2-4.01-2.02-6.94h0c.02-2.94.7-5.27,2.02-6.95,1.48-1.89,3.69-2.85,6.56-2.87h.01c2.88.02,5.11.98,6.64,2.86.75.93,1.31,2.04,1.66,3.34l-1.65.44c-.29-1.05-.73-1.96-1.31-2.68-1.19-1.46-2.99-2.22-5.33-2.23-2.33.02-4.1.77-5.24,2.22-1.07,1.37-1.63,3.34-1.65,5.86.02,2.52.58,4.5,1.65,5.86Z"/>
</svg>