<svg xmlns="http://www.w3.org/2000/svg" width="35.415" height="35.415" viewBox="0 0 35.415 35.415">
  <g id="Instagram" transform="translate(-816.299 -1024)">
    <path id="Path_28" data-name="Path 28" d="M89.007,18.337a2.905,2.905,0,1,0,2.905,2.905,2.9,2.9,0,0,0-2.905-2.905m0,0a2.905,2.905,0,1,0,2.905,2.905,2.9,2.9,0,0,0-2.905-2.905m0,0a2.905,2.905,0,1,0,2.905,2.905,2.9,2.9,0,0,0-2.905-2.905m0,0a2.905,2.905,0,1,0,2.905,2.905,2.9,2.9,0,0,0-2.905-2.905m3.6-4.577H85.255a3.8,3.8,0,0,0-3.8,3.8v7.356a3.807,3.807,0,0,0,3.8,3.8h7.356a3.812,3.812,0,0,0,3.8-3.8V17.565a3.807,3.807,0,0,0-3.8-3.8m-3.6,12.023a4.54,4.54,0,1,1,4.54-4.54,4.544,4.544,0,0,1-4.54,4.54m4.8-8.308A1.081,1.081,0,1,1,94.892,16.4a1.078,1.078,0,0,1-1.085,1.077m-4.8.862a2.905,2.905,0,1,0,2.905,2.905,2.9,2.9,0,0,0-2.905-2.905m0,0a2.905,2.905,0,1,0,2.905,2.905,2.9,2.9,0,0,0-2.905-2.905m0,0a2.905,2.905,0,1,0,2.905,2.905,2.9,2.9,0,0,0-2.905-2.905" transform="translate(745.074 1020.465)" fill="#fff"/>
    <path id="Path_29" data-name="Path 29" d="M85.4,0a17.708,17.708,0,1,0,17.708,17.708A17.708,17.708,0,0,0,85.4,0m9.214,21.386a5.54,5.54,0,0,1-5.536,5.536H81.719a5.54,5.54,0,0,1-5.536-5.536V14.029a5.54,5.54,0,0,1,5.536-5.536h7.356a5.54,5.54,0,0,1,5.536,5.536Z" transform="translate(748.609 1024)" fill="#fff"/>
  </g>
</svg>
