<?xml version="1.0" encoding="UTF-8"?>
<svg id="Layer_1" data-name="Layer 1" xmlns="http://www.w3.org/2000/svg" viewBox="0 0 35.67 35.67">
  <defs>
    <style>
      .cls-1 {
        fill: #fff;
      }
    </style>
  </defs>
  <path class="cls-1" d="M18.37,1.02C9.09,1.02,1.56,8.55,1.56,17.83s7.53,16.81,16.81,16.81,16.81-7.53,16.81-16.81S27.66,1.02,18.37,1.02ZM26.58,16.39c-1.85,3.94-6.3,9.3-9.11,9.3s-3.17-5.91-4.68-9.85c-.75-1.94-1.23-1.49-2.62-.52l-.85-1.1c2.04-1.79,4.08-3.86,5.33-3.98,1.41-.13,2.28.83,2.6,2.89.43,2.71,1.03,6.92,2.08,6.92.81,0,2.82-3.34,2.93-4.53.18-1.75-1.29-1.8-2.56-1.26,2.02-6.61,10.41-5.39,6.9,2.11Z"/>
</svg>