<?xml version="1.0" encoding="UTF-8"?>
<svg xmlns="http://www.w3.org/2000/svg" version="1.1" viewBox="0 0 35.4 35.4">
  <defs>
    <style>
      .cls-1 {
        fill: #fff;
      }

      .cls-2 {
        fill: #0197e0;
      }
    </style>
  </defs>
  <!-- Generator: Adobe Illustrator 28.7.1, SVG Export Plug-In . SVG Version: 1.2.0 Build 142)  -->
  <g>
    <g id="Layer_1">
      <g id="Facebook">
        <polygon class="cls-1" points="15.6 14.6 21.1 17.7 15.6 20.8 15.6 14.6"/>
        <path class="cls-1" d="M30.2,5.2C27,2,22.6,0,17.7,0,7.9,0,0,7.9,0,17.7s7.9,17.7,17.7,17.7,17.7-7.9,17.7-17.7c0-4.9-2-9.3-5.2-12.5ZM27.8,22.8c-.2.9-1,1.6-1.9,1.9-1.6.4-8.2.4-8.2.4,0,0-6.6,0-8.2-.4-.9-.2-1.6-1-1.8-1.9-.3-1.7-.5-3.4-.4-5.1,0-1.7.1-3.4.4-5,.2-.9.9-1.6,1.8-1.9,1.6-.4,8.2-.4,8.2-.4,0,0,6.6,0,8.2.4.9.2,1.6,1,1.9,1.9.3,1.7.4,3.4.4,5,0,1.7-.1,3.4-.4,5.1Z"/>
      </g>
      <g id="Group_162">
        <polygon class="cls-2" points="21.1 17.7 15.6 20.8 15.6 14.6 21.1 17.7"/>
        <polygon class="cls-1" points="21.1 17.7 15.6 20.8 15.6 14.6 21.1 17.7"/>
      </g>
    </g>
  </g>
</svg>