<svg xmlns="http://www.w3.org/2000/svg" width="35.422" height="35.415" viewBox="0 0 35.422 35.415">
  <g id="LinkedIn" transform="translate(-916.889 -1024)">
    <path id="Path_23" data-name="Path 23" d="M220.768,0a17.708,17.708,0,1,0,17.715,17.708A17.708,17.708,0,0,0,220.768,0m-4.05,23.34h-3.039V13.561h3.039Zm-1.523-11.116a1.761,1.761,0,1,1,1.769-1.761,1.76,1.76,0,0,1-1.769,1.761M228.109,23.34H225.07V18.584c0-1.137-.022-2.593-1.583-2.593-1.583,0-1.821,1.234-1.821,2.512V23.34h-3.039V13.561h2.913V14.9h.045a3.182,3.182,0,0,1,2.876-1.583c3.076,0,3.649,2.029,3.649,4.659Z" transform="translate(713.829 1024)" fill="#fff"/>
  </g>
</svg>
