<svg xmlns="http://www.w3.org/2000/svg" width="35.415" height="35.415" viewBox="0 0 35.415 35.415">
  <g id="E-mail" transform="translate(-1017.487 -1024)">
    <path id="Path_36" data-name="Path 36" d="M356.614,21.914l-5.32,5.32a2.939,2.939,0,0,1-1.263-2.408v-5.67a2.943,2.943,0,0,1,1.36-2.467Z" transform="translate(676.069 1019.712)" fill="#fff"/>
    <path id="Path_37" data-name="Path 37" d="M358.526,20.811,353.8,16.077c.045,0,.082-.007.126-.007h12.335c.045,0,.082.007.126.007l-4.726,4.733-1.568,1.568-.624-.624Z" transform="translate(675.101 1019.871)" fill="#fff"/>
    <path id="Path_38" data-name="Path 38" d="M361.61,24.99l4.882,4.875c-.1.007-.186.03-.282.03H353.875c-.1,0-.186-.022-.275-.03l4.875-4.875.617.624.951.944.951-.944Z" transform="translate(675.152 1017.58)" fill="#fff"/>
    <path id="Path_39" data-name="Path 39" d="M372.241,19.157v5.67a2.926,2.926,0,0,1-1.271,2.408l-5.32-5.32,5.224-5.224a2.933,2.933,0,0,1,1.367,2.467" transform="translate(672.056 1019.712)" fill="#fff"/>
    <path id="Path_40" data-name="Path 40" d="M356.148,0a17.708,17.708,0,1,0,17.708,17.708A17.708,17.708,0,0,0,356.148,0M366.58,20.539a4.272,4.272,0,0,1-4.265,4.273H349.98a4.277,4.277,0,0,1-4.265-4.273v-5.67A4.27,4.27,0,0,1,349.98,10.6h12.335a4.265,4.265,0,0,1,4.265,4.265Z" transform="translate(679.047 1024)" fill="#fff"/>
  </g>
</svg>
