<?xml version="1.0" encoding="UTF-8"?>
<svg xmlns="http://www.w3.org/2000/svg" version="1.1" viewBox="0 0 100 100">
  <defs>
    <style>
      .cls-1 {
        fill: #0f9bd7;
      }
    </style>
  </defs>
  <!-- Generator: Adobe Illustrator 28.6.0, SVG Export Plug-In . SVG Version: 1.2.0 Build 709)  -->
  <g>
    <g id="Layer_1">
      <g id="sun">
        <path class="cls-1" d="M74.44,46.41c1.98,13.5-7.35,26.05-20.85,28.04-13.5,1.98-26.05-7.35-28.03-20.85-1.98-13.5,7.35-26.05,20.85-28.04,13.5-1.98,26.05,7.35,28.04,20.85Z"/>
        <g>
          <g>
            <path class="cls-1" d="M49.8.2c-2.13,0-3.85,1.73-3.84,3.87l.04,10.4c0,2.14,1.74,3.85,3.87,3.84,2.13,0,3.85-1.75,3.84-3.87l-.03-10.4c0-2.13-1.74-3.85-3.87-3.84Z"/>
            <path class="cls-1" d="M50.19,99.8c2.13,0,3.85-1.73,3.84-3.87l-.04-10.4c0-2.13-1.74-3.85-3.87-3.84-2.13,0-3.85,1.74-3.84,3.87l.03,10.4c0,2.13,1.74,3.85,3.87,3.84Z"/>
          </g>
          <g>
            <path class="cls-1" d="M.2,50.19c0,2.13,1.74,3.85,3.87,3.84l10.4-.04c2.14,0,3.85-1.74,3.84-3.87,0-2.13-1.75-3.85-3.87-3.84l-10.4.03c-2.13,0-3.85,1.74-3.84,3.87Z"/>
            <path class="cls-1" d="M99.8,49.81c0-2.13-1.74-3.85-3.87-3.84l-10.4.04c-2.13,0-3.85,1.74-3.84,3.87,0,2.13,1.75,3.85,3.87,3.84l10.4-.03c2.13,0,3.85-1.74,3.84-3.87Z"/>
          </g>
        </g>
        <g>
          <g>
            <path class="cls-1" d="M14.65,14.92c-1.5,1.51-1.49,3.95.02,5.45l7.38,7.32c1.51,1.5,3.95,1.49,5.45-.02,1.5-1.51,1.49-3.96-.02-5.45l-7.38-7.33c-1.51-1.5-3.95-1.49-5.45.03Z"/>
            <path class="cls-1" d="M85.35,85.07c1.5-1.5,1.49-3.95-.02-5.45l-7.38-7.32c-1.52-1.5-3.95-1.49-5.45.02-1.5,1.51-1.49,3.96.02,5.45l7.38,7.33c1.51,1.5,3.95,1.49,5.45-.03Z"/>
          </g>
          <g>
            <path class="cls-1" d="M14.92,85.35c1.51,1.5,3.95,1.5,5.45-.02l7.32-7.38c1.51-1.52,1.49-3.95-.02-5.46-1.51-1.5-3.96-1.49-5.45.03l-7.32,7.38c-1.5,1.51-1.49,3.95.02,5.45Z"/>
            <path class="cls-1" d="M85.08,14.65c-1.51-1.5-3.95-1.5-5.45.02l-7.32,7.38c-1.51,1.51-1.49,3.95.02,5.45,1.51,1.5,3.96,1.49,5.45-.03l7.33-7.38c1.5-1.51,1.49-3.95-.02-5.45Z"/>
          </g>
        </g>
      </g>
    </g>
  </g>
</svg>