<?xml version="1.0" encoding="UTF-8"?>
<svg xmlns="http://www.w3.org/2000/svg" version="1.1" viewBox="0 0 100 100">
  <defs>
    <style>
      .cls-1 {
        fill: #0f9bd7;
      }

      .cls-2 {
        fill: #9ce5ff;
      }
    </style>
  </defs>
  <!-- Generator: Adobe Illustrator 28.6.0, SVG Export Plug-In . SVG Version: 1.2.0 Build 709)  -->
  <g>
    <g id="Layer_1">
      <g>
        <g id="sun">
          <path class="cls-1" d="M75.42,57.1c-3.44-2.28-7.59-3.61-12.02-3.61-.63,0-1.24.02-1.88.07-3.28-7.38-9.97-12.57-17.89-13.9,1.76-7.22,7.73-13.01,15.54-14.16,10.25-1.5,19.79,5.6,21.31,15.85.87,5.98-1.17,11.7-5.06,15.75Z"/>
          <g>
            <path class="cls-1" d="M61.75,6.23c-1.62,0-2.92,1.32-2.92,2.94l.03,7.9c0,1.62,1.32,2.93,2.94,2.92,1.62,0,2.93-1.33,2.92-2.94l-.03-7.9c0-1.62-1.32-2.93-2.95-2.92Z"/>
            <path class="cls-1" d="M99.75,43.94c0-1.62-1.32-2.93-2.94-2.92l-7.9.03c-1.62,0-2.93,1.32-2.92,2.94,0,1.62,1.33,2.93,2.94,2.92l7.9-.03c1.62,0,2.93-1.32,2.92-2.94Z"/>
          </g>
          <g>
            <g>
              <path class="cls-1" d="M35.02,17.42c-1.14,1.15-1.13,3,.01,4.14l5.61,5.57c1.15,1.14,3,1.13,4.15-.01,1.14-1.15,1.13-3.01-.02-4.14l-5.61-5.57c-1.15-1.14-3.01-1.13-4.14.02Z"/>
              <path class="cls-1" d="M88.77,70.75c-1.06,1.08-2.77,1.17-3.92.21v-.02c-.8-3.92-2.67-7.48-5.28-10.32,1.12-.7,2.62-.54,3.59.42l5.6,5.56c1.15,1.15,1.17,3,.02,4.15Z"/>
            </g>
            <path class="cls-1" d="M88.56,17.22c-1.15-1.14-3-1.14-4.14.01l-5.57,5.61c-1.14,1.15-1.13,3,.01,4.14,1.15,1.14,3.01,1.13,4.14-.02l5.57-5.61c1.14-1.15,1.13-3-.02-4.14Z"/>
          </g>
        </g>
        <g id="cloud">
          <path class="cls-2" d="M63.41,93.77c10.16,0,18.4-8.24,18.4-18.4s-8.24-18.4-18.4-18.4c-1.43,0-2.81.18-4.15.49-2.56-8.48-10.43-14.67-19.75-14.67-11.39,0-20.63,9.24-20.63,20.63,0,.42.04.83.06,1.25-1.24-.34-2.54-.53-3.89-.53-8.18,0-14.82,6.63-14.82,14.82s6.63,14.82,14.82,14.82h48.35Z"/>
        </g>
      </g>
    </g>
  </g>
</svg>