<?xml version="1.0" encoding="UTF-8"?>
<svg xmlns="http://www.w3.org/2000/svg" version="1.1" viewBox="0 0 100 100">
  <defs>
    <style>
      .cls-1 {
        fill: #0f9bd7;
      }

      .cls-2 {
        fill: #d4f4ff;
      }
    </style>
  </defs>
  <!-- Generator: Adobe Illustrator 28.6.0, SVG Export Plug-In . SVG Version: 1.2.0 Build 709)  -->
  <g>
    <g id="Layer_1">
      <g>
        <g id="sun">
          <path class="cls-1" d="M75.55,57.13c-3.45-2.3-7.62-3.63-12.08-3.63-.63,0-1.24.02-1.89.07-3.29-7.41-10.02-12.64-17.98-13.97,1.77-7.26,7.76-13.07,15.62-14.23,10.3-1.51,19.89,5.63,21.42,15.93.88,6.01-1.17,11.76-5.08,15.83Z"/>
          <g>
            <path class="cls-1" d="M61.8,6.01c-1.63,0-2.94,1.33-2.93,2.95l.03,7.94c0,1.63,1.33,2.94,2.95,2.94,1.63,0,2.94-1.33,2.93-2.96l-.03-7.94c0-1.63-1.33-2.94-2.96-2.93Z"/>
            <path class="cls-1" d="M100,43.91c0-1.63-1.33-2.94-2.96-2.93l-7.94.03c-1.63,0-2.94,1.33-2.94,2.95,0,1.63,1.33,2.94,2.96,2.93l7.94-.03c1.63,0,2.94-1.33,2.93-2.96Z"/>
          </g>
          <g>
            <g>
              <path class="cls-1" d="M34.95,17.26c-1.15,1.15-1.14,3.02.01,4.16l5.64,5.59c1.16,1.15,3.02,1.14,4.17-.01,1.15-1.15,1.14-3.02-.02-4.16l-5.63-5.6c-1.16-1.15-3.02-1.14-4.17.02Z"/>
              <path class="cls-1" d="M88.96,70.86c-1.07,1.09-2.79,1.17-3.94.21v-.02c-.81-3.94-2.68-7.52-5.31-10.38,1.12-.7,2.63-.54,3.61.42l5.63,5.59c1.16,1.16,1.17,3.01.02,4.17Z"/>
            </g>
            <path class="cls-1" d="M88.75,17.05c-1.15-1.15-3.02-1.15-4.16.01l-5.59,5.64c-1.15,1.16-1.14,3.02.01,4.17,1.16,1.15,3.02,1.14,4.16-.02l5.6-5.63c1.15-1.15,1.14-3.02-.02-4.16Z"/>
          </g>
        </g>
        <g id="cloud">
          <path class="cls-2" d="M63.48,93.99c10.21,0,18.49-8.28,18.49-18.49s-8.28-18.49-18.49-18.49c-1.44,0-2.83.18-4.17.49-2.57-8.53-10.48-14.74-19.84-14.74-11.45,0-20.73,9.28-20.73,20.73,0,.42.04.84.06,1.26-1.25-.34-2.55-.53-3.91-.53-8.22,0-14.89,6.67-14.89,14.89s6.67,14.89,14.89,14.89h48.59Z"/>
        </g>
      </g>
    </g>
  </g>
</svg>