<?xml version="1.0" encoding="UTF-8"?>
<svg xmlns="http://www.w3.org/2000/svg" version="1.1" viewBox="0 0 100 100">
  <defs>
    <style>
      .cls-1 {
        fill: #0f9bd7;
      }

      .cls-2 {
        fill: #2b346a;
      }
    </style>
  </defs>
  <!-- Generator: Adobe Illustrator 28.6.0, SVG Export Plug-In . SVG Version: 1.2.0 Build 709)  -->
  <g>
    <g id="Layer_1">
      <path class="cls-2" d="M99.84,52.04c0,9.42-7.1,17.21-16.24,18.32,1.05-2.55,1.63-5.35,1.63-8.27,0-12.09-9.84-21.95-21.93-21.95-.63,0-1.24.03-1.89.09-3.46-7.79-10.73-13.16-19.22-14.12,3.79-4.14,9.23-6.73,15.27-6.73,9.33,0,17.21,6.2,19.78,14.7,1.33-.3,2.73-.49,4.16-.49,10.19,0,18.44,8.27,18.44,18.46Z"/>
      <g id="cloud">
        <path class="cls-1" d="M81.74,62.09c0,3.02-.73,5.87-2.01,8.39-3.06,5.96-9.26,10.05-16.43,10.05H14.85c-8.21,0-14.85-6.66-14.85-14.85s6.64-14.84,14.85-14.84c1.35,0,2.62.19,3.88.52,0-.02,0-.05.02-.07-.03-.4-.07-.77-.07-1.19,0-11.41,9.26-20.67,20.67-20.67h.37c9.18.16,16.88,6.31,19.42,14.7,1.35-.3,2.73-.47,4.16-.47,10.19,0,18.44,8.25,18.44,18.44Z"/>
      </g>
    </g>
  </g>
</svg>