<?xml version="1.0" encoding="UTF-8"?>
<svg xmlns="http://www.w3.org/2000/svg" version="1.1" viewBox="0 0 100 100">
  <defs>
    <style>
      .cls-1 {
        fill: #0f9bd7;
      }

      .cls-2 {
        fill: #d4f4ff;
      }
    </style>
  </defs>
  <!-- Generator: Adobe Illustrator 28.6.0, SVG Export Plug-In . SVG Version: 1.2.0 Build 709)  -->
  <g>
    <g id="Layer_1">
      <g id="raining">
        <path class="cls-2" d="M77.44,63.33c12.46,0,22.56-10.1,22.56-22.56s-10.1-22.56-22.56-22.56c-1.75,0-3.45.22-5.09.6C69.21,8.41,59.57.83,48.14.83c-13.97,0-25.29,11.33-25.29,25.29,0,.51.05,1.02.08,1.53-1.52-.41-3.11-.65-4.76-.65C8.13,27.01,0,35.14,0,45.17s8.13,18.17,18.17,18.17h59.27Z"/>
        <path class="cls-1" d="M38.68,75.61c-.39,6.76-10.24,5.84-9.42-.84.21-1.55,1.2-2.52,2.28-3.54.84-.8,1.91-2,2.4-2.35.36.24,2.42,2.41,2.81,2.77,1.09.92,1.96,2.37,1.93,3.83v.13Z"/>
        <path class="cls-1" d="M54.4,75.61c-.39,6.76-10.24,5.84-9.42-.84.21-1.55,1.2-2.52,2.28-3.54.84-.8,1.91-2,2.4-2.35.36.24,2.42,2.41,2.81,2.77,1.09.92,1.96,2.37,1.93,3.83v.13Z"/>
        <path class="cls-1" d="M70.13,75.61c-.39,6.76-10.24,5.84-9.42-.84.21-1.55,1.2-2.52,2.28-3.54.84-.8,1.91-2,2.4-2.35.36.24,2.42,2.41,2.81,2.77,1.09.92,1.96,2.37,1.93,3.83v.13Z"/>
        <path class="cls-1" d="M52.26,96.63c-.21,3.7-5.61,3.2-5.16-.46.12-.85.66-1.38,1.25-1.94.46-.44,1.04-1.1,1.31-1.29.2.13,1.33,1.32,1.54,1.52.59.5,1.07,1.3,1.06,2.1v.07Z"/>
        <path class="cls-1" d="M45.96,87.64c-.3,5.19-7.87,4.49-7.24-.65.16-1.19.93-1.93,1.75-2.72.64-.61,1.47-1.54,1.84-1.81.28.19,1.86,1.85,2.16,2.13.83.71,1.51,1.82,1.48,2.94v.1Z"/>
        <path class="cls-1" d="M60.66,87.64c-.3,5.19-7.87,4.49-7.24-.65.16-1.19.93-1.93,1.75-2.72.64-.61,1.47-1.54,1.84-1.81.28.19,1.86,1.85,2.16,2.13.83.71,1.51,1.82,1.48,2.94v.1Z"/>
      </g>
    </g>
  </g>
</svg>