<?xml version="1.0" encoding="UTF-8"?>
<svg xmlns="http://www.w3.org/2000/svg" version="1.1" viewBox="0 0 100 100">
  <defs>
    <style>
      .cls-1 {
        fill: #0f9bd7;
      }

      .cls-2 {
        fill: #2b346a;
      }
    </style>
  </defs>
  <!-- Generator: Adobe Illustrator 28.6.0, SVG Export Plug-In . SVG Version: 1.2.0 Build 709)  -->
  <g>
    <g id="Layer_1">
      <g>
        <g id="raining">
          <path class="cls-2" d="M61.85,74.88c8.73,0,15.8-7.08,15.8-15.8s-7.08-15.8-15.8-15.8c-1.23,0-2.42.15-3.56.42-2.2-7.29-8.96-12.59-16.96-12.59-9.78,0-17.72,7.93-17.72,17.72,0,.36.03.72.06,1.07-1.07-.29-2.18-.46-3.34-.46-7.03,0-12.72,5.7-12.72,12.72s5.7,12.72,12.72,12.72h41.52Z"/>
          <path class="cls-1" d="M34.7,83.48c-.27,4.73-7.17,4.09-6.6-.59.15-1.08.84-1.76,1.6-2.48.59-.56,1.34-1.4,1.68-1.65.25.17,1.7,1.69,1.97,1.94.76.65,1.37,1.66,1.35,2.68v.09Z"/>
          <path class="cls-1" d="M45.72,83.48c-.27,4.73-7.17,4.09-6.6-.59.15-1.08.84-1.76,1.6-2.48.59-.56,1.34-1.4,1.68-1.65.25.17,1.7,1.69,1.97,1.94.76.65,1.37,1.66,1.35,2.68v.09Z"/>
          <path class="cls-1" d="M56.73,83.48c-.27,4.73-7.17,4.09-6.6-.59.15-1.08.84-1.76,1.6-2.48.59-.56,1.34-1.4,1.68-1.65.25.17,1.7,1.69,1.97,1.94.76.65,1.37,1.66,1.35,2.68v.09Z"/>
          <path class="cls-1" d="M44.22,98.2c-.15,2.59-3.93,2.24-3.61-.32.08-.59.46-.97.87-1.36.32-.3.73-.77.92-.9.14.09.93.93,1.08,1.06.42.35.75.91.74,1.47v.05Z"/>
          <path class="cls-1" d="M39.8,91.91c-.21,3.64-5.51,3.14-5.07-.45.11-.83.65-1.35,1.23-1.91.45-.43,1.03-1.08,1.29-1.27.19.13,1.31,1.3,1.51,1.49.58.5,1.06,1.28,1.04,2.06v.07Z"/>
          <path class="cls-1" d="M50.1,91.91c-.21,3.64-5.51,3.14-5.07-.45.11-.83.65-1.35,1.23-1.91.45-.43,1.03-1.08,1.29-1.27.19.13,1.31,1.3,1.51,1.49.58.5,1.06,1.28,1.04,2.06v.07Z"/>
        </g>
        <g id="sun">
          <path class="cls-1" d="M71.71,43.27c-2.92-1.94-6.45-3.07-10.22-3.07-.53,0-1.05.01-1.6.06-2.79-6.27-8.48-10.69-15.21-11.82,1.5-6.14,6.57-11.06,13.21-12.04,8.72-1.28,16.83,4.76,18.12,13.48.74,5.09-.99,9.95-4.3,13.39Z"/>
          <g>
            <path class="cls-1" d="M60.08.02c-1.38,0-2.49,1.12-2.48,2.5l.03,6.72c0,1.38,1.12,2.49,2.5,2.48,1.38,0,2.49-1.13,2.48-2.5l-.02-6.72c0-1.38-1.13-2.49-2.5-2.48Z"/>
            <path class="cls-1" d="M92.39,32.08c0-1.38-1.12-2.49-2.5-2.48l-6.72.03c-1.38,0-2.49,1.12-2.48,2.5,0,1.38,1.13,2.49,2.5,2.48l6.72-.02c1.38,0,2.49-1.12,2.48-2.5Z"/>
          </g>
          <g>
            <g>
              <path class="cls-1" d="M37.35,9.53c-.97.97-.96,2.55.01,3.52l4.77,4.73c.98.97,2.55.96,3.52-.01.97-.98.96-2.56-.02-3.52l-4.77-4.74c-.98-.97-2.56-.96-3.52.02Z"/>
              <path class="cls-1" d="M83.05,54.88c-.9.92-2.36.99-3.34.18h0c-.68-3.35-2.27-6.38-4.49-8.79.95-.59,2.22-.46,3.05.36l4.76,4.73c.98.98.99,2.55.01,3.53Z"/>
            </g>
            <path class="cls-1" d="M82.88,9.36c-.98-.97-2.55-.97-3.52.01l-4.73,4.77c-.97.98-.96,2.55.01,3.52.98.97,2.56.96,3.52-.02l4.74-4.77c.97-.98.96-2.55-.02-3.52Z"/>
          </g>
        </g>
      </g>
    </g>
  </g>
</svg>