<?xml version="1.0" encoding="UTF-8"?>
<svg xmlns="http://www.w3.org/2000/svg" version="1.1" viewBox="0 0 100 100">
  <defs>
    <style>
      .cls-1 {
        fill: #2b346a;
      }

      .cls-2 {
        fill: #d4f4ff;
      }
    </style>
  </defs>
  <!-- Generator: Adobe Illustrator 28.6.0, SVG Export Plug-In . SVG Version: 1.2.0 Build 709)  -->
  <g>
    <g id="Layer_1">
      <g>
        <g id="raining">
          <path class="cls-1" d="M74.29,55.43c11.03,0,19.98-8.95,19.98-19.97s-8.95-19.97-19.98-19.97c-1.55,0-3.05.19-4.5.53C67.01,6.81,58.47.09,48.36.09,35.99.09,25.96,10.12,25.96,22.49c0,.46.04.91.07,1.35-1.35-.36-2.76-.58-4.22-.58-8.88,0-16.08,7.2-16.08,16.08s7.2,16.08,16.08,16.08h52.48Z"/>
        </g>
        <g>
          <path class="cls-2" d="M39.78,82.98h-6.14l4.34-4.34c.96-.95.96-2.5,0-3.46-.95-.95-2.5-.95-3.45,0l-4.34,4.34v-6.14c0-1.35-1.1-2.44-2.44-2.44s-2.45,1.09-2.45,2.44v6.14l-4.34-4.34c-.95-.96-2.5-.96-3.45,0-.95.95-.95,2.5,0,3.45l4.34,4.34h-6.14c-1.35,0-2.44,1.09-2.44,2.44s1.09,2.44,2.44,2.44h6.14l-4.34,4.34c-.95.95-.95,2.5,0,3.45.95.95,2.5.95,3.45,0l4.34-4.35v6.15c0,1.35,1.09,2.44,2.45,2.44s2.44-1.09,2.44-2.44v-6.14l4.34,4.34c.96.96,2.5.96,3.45,0,.96-.95.96-2.5,0-3.46l-4.34-4.34h6.14c1.34,0,2.44-1.09,2.44-2.44s-1.1-2.44-2.44-2.44Z"/>
          <path class="cls-2" d="M65.19,69.15h-4.51l3.19-3.19c.7-.7.7-1.84,0-2.54-.7-.7-1.84-.7-2.54,0l-3.19,3.19v-4.51c0-.99-.81-1.79-1.79-1.79s-1.8.8-1.8,1.79v4.51l-3.19-3.19c-.7-.7-1.83-.7-2.53,0-.7.7-.7,1.83,0,2.54l3.19,3.19h-4.51c-.99,0-1.79.8-1.79,1.79s.8,1.79,1.79,1.79h4.51l-3.19,3.19c-.7.7-.7,1.83,0,2.53.7.7,1.83.7,2.53,0l3.19-3.19v4.51c0,.99.8,1.79,1.8,1.79s1.79-.8,1.79-1.79v-4.51l3.19,3.19c.7.7,1.84.7,2.54,0,.7-.7.7-1.84,0-2.54l-3.19-3.19h4.51c.99,0,1.79-.8,1.79-1.79s-.81-1.79-1.79-1.79Z"/>
          <path class="cls-2" d="M85.47,91.12h-3.19l2.25-2.25c.5-.5.5-1.3,0-1.79-.49-.49-1.3-.49-1.79,0l-2.25,2.25v-3.19c0-.7-.57-1.27-1.27-1.27s-1.27.57-1.27,1.27v3.19l-2.25-2.25c-.49-.5-1.3-.5-1.79,0-.5.5-.5,1.3,0,1.79l2.25,2.25h-3.19c-.7,0-1.27.57-1.27,1.27s.57,1.27,1.27,1.27h3.19l-2.25,2.25c-.5.5-.5,1.3,0,1.79.5.49,1.3.49,1.79,0l2.25-2.26v3.19c0,.7.57,1.27,1.27,1.27s1.27-.57,1.27-1.27v-3.19l2.25,2.25c.5.5,1.3.5,1.79,0,.5-.5.5-1.3,0-1.79l-2.25-2.25h3.19c.7,0,1.27-.57,1.27-1.27s-.57-1.27-1.27-1.27Z"/>
        </g>
      </g>
    </g>
  </g>
</svg>