<?xml version="1.0" encoding="UTF-8"?>
<svg xmlns="http://www.w3.org/2000/svg" version="1.1" viewBox="0 0 100 100">
  <defs>
    <style>
      .cls-1 {
        fill: #2b346a;
      }
    </style>
  </defs>
  <!-- Generator: Adobe Illustrator 28.6.0, SVG Export Plug-In . SVG Version: 1.2.0 Build 709)  -->
  <g>
    <g id="Layer_1">
      <g id="fog">
        <path class="cls-1" d="M81.23,32.63H18.78c-1.5,0-2.73-1.22-2.73-2.72s1.22-2.73,2.73-2.73h62.45c1.5,0,2.72,1.22,2.72,2.73s-1.22,2.72-2.72,2.72Z"/>
        <path class="cls-1" d="M96.67,48.45H3.33c-1.84,0-3.33-1.49-3.33-3.33s1.5-3.33,3.33-3.33h93.33c1.84,0,3.33,1.49,3.33,3.33s-1.49,3.33-3.33,3.33Z"/>
        <path class="cls-1" d="M92.35,63.51H7.65c-1.75,0-3.18-1.42-3.18-3.18s1.42-3.17,3.18-3.17h84.7c1.76,0,3.18,1.42,3.18,3.17s-1.42,3.18-3.18,3.18Z"/>
        <path class="cls-1" d="M81.23,78.27H18.78c-1.5,0-2.73-1.22-2.73-2.72s1.22-2.73,2.73-2.73h62.45c1.5,0,2.72,1.22,2.72,2.73s-1.22,2.72-2.72,2.72Z"/>
      </g>
    </g>
  </g>
</svg>